# xmcd
#
# Track frame offsets: 
#        225
#        15056
#        30302
#        41082
#        58318
#        72256
#        89047
#        102909
#        120061
#        134819
#        150675
#        165487
#        182518
#        200628
#        212986
#        228574
#
# Disc length: 3234 seconds
#
# Revision: 0
# Processed by: cddbd v1.4PL0 Copyright (c) Steve Scherf et al.
# Submitted via: ExactAudioCopy v0.95a3
#
DISCID=da0c9f10
DTITLE=Schovanky - Damska jizda
DYEAR=1997
DGENRE=Country
TTITLE0=Damska jizda II
TTITLE1=Mam rada desperada
TTITLE2=Morska panna
TTITLE3=Chraneny uzemi
TTITLE4=Krasnej vzdalenej kout
TTITLE5=Ja nad tebou zivam
TTITLE6=Flam
TTITLE7=Vnimam
TTITLE8=Damska jizda
TTITLE9=Prazdna dlan
TTITLE10=Klobouk po tete
TTITLE11=Noc carodejnic
TTITLE12=Dalsi den
TTITLE13=Babi, proc ne
TTITLE14=Ja odchazim
TTITLE15=Mejdan ve stodole
EXTD=
EXTT0=
EXTT1=
EXTT2=
EXTT3=
EXTT4=
EXTT5=
EXTT6=
EXTT7=
EXTT8=
EXTT9=
EXTT10=
EXTT11=
EXTT12=
EXTT13=
EXTT14=
EXTT15=
PLAYORDER=
